<svg width="323" height="317" viewBox="0 0 323 317" fill="none" xmlns="http://www.w3.org/2000/svg">
<path fill-rule="evenodd" clip-rule="evenodd" d="M137 0L123.76 24.0723C110.958 27.2607 98.5265 32.3213 86.9007 39.2543L60.8335 31.135L32.5492 59.4193L40.1146 85.4778C32.8232 97.3718 27.5141 110.138 24.1873 123.302L0 136V176L23.7899 189.084C27.0479 202.668 32.4064 215.85 39.8655 228.114L31.8421 253.874L60.1264 282.158L86.4946 274.503C97.5458 281.145 109.332 286.09 121.478 289.338L136 317H176L190.994 289.737C203.903 286.444 216.426 281.243 228.114 274.134L253.874 282.158L282.158 253.874L274.503 227.505C279.217 219.662 283.076 211.449 286.081 203H232.251C228.688 208.819 224.387 214.313 219.35 219.35C184.915 253.785 129.085 253.785 94.6497 219.35C60.2145 184.915 60.2145 129.085 94.6497 94.6497C129.085 60.2145 184.915 60.2145 219.35 94.6497C224.961 100.26 229.657 106.439 233.439 113H286.774C283.728 103.993 279.718 95.2394 274.746 86.9007L282.865 60.8335L254.581 32.5492L228.522 40.1146C216.282 32.6111 203.119 27.2069 189.549 23.9021L177 5.33279e-06L137 0Z" fill="#3799FF"/>
<mask id="path-2-outside-1_2_72" maskUnits="userSpaceOnUse" x="159" y="120" width="159" height="76" fill="black">
<rect fill="white" x="159" y="120" width="159" height="76"/>
<path d="M197.254 135.064L177.918 194H162.342L188.758 122.906H198.67L197.254 135.064ZM213.318 194L193.934 135.064L192.371 122.906H202.381L228.943 194H213.318ZM212.439 167.535V179.01H174.891V167.535H212.439ZM263.221 168.658H245.105V157.232H263.221C266.02 157.232 268.299 156.777 270.057 155.865C271.814 154.921 273.1 153.619 273.914 151.959C274.728 150.299 275.135 148.427 275.135 146.344C275.135 144.228 274.728 142.258 273.914 140.436C273.1 138.613 271.814 137.148 270.057 136.041C268.299 134.934 266.02 134.381 263.221 134.381H250.184V194H235.535V122.906H263.221C268.787 122.906 273.556 123.915 277.527 125.934C281.531 127.919 284.591 130.67 286.707 134.186C288.823 137.701 289.881 141.721 289.881 146.246C289.881 150.836 288.823 154.807 286.707 158.16C284.591 161.513 281.531 164.101 277.527 165.924C273.556 167.747 268.787 168.658 263.221 168.658ZM315.564 122.906V194H300.965V122.906H315.564Z"/>
</mask>
<path d="M197.254 135.064L177.918 194H162.342L188.758 122.906H198.67L197.254 135.064ZM213.318 194L193.934 135.064L192.371 122.906H202.381L228.943 194H213.318ZM212.439 167.535V179.01H174.891V167.535H212.439ZM263.221 168.658H245.105V157.232H263.221C266.02 157.232 268.299 156.777 270.057 155.865C271.814 154.921 273.1 153.619 273.914 151.959C274.728 150.299 275.135 148.427 275.135 146.344C275.135 144.228 274.728 142.258 273.914 140.436C273.1 138.613 271.814 137.148 270.057 136.041C268.299 134.934 266.02 134.381 263.221 134.381H250.184V194H235.535V122.906H263.221C268.787 122.906 273.556 123.915 277.527 125.934C281.531 127.919 284.591 130.67 286.707 134.186C288.823 137.701 289.881 141.721 289.881 146.246C289.881 150.836 288.823 154.807 286.707 158.16C284.591 161.513 281.531 164.101 277.527 165.924C273.556 167.747 268.787 168.658 263.221 168.658ZM315.564 122.906V194H300.965V122.906H315.564Z" fill="#3799FF"/>
<path d="M197.254 135.064L199.154 135.688L199.217 135.496L199.24 135.296L197.254 135.064ZM177.918 194V196H179.367L179.818 194.623L177.918 194ZM162.342 194L160.467 193.303L159.465 196H162.342V194ZM188.758 122.906V120.906H187.367L186.883 122.21L188.758 122.906ZM198.67 122.906L200.656 123.138L200.916 120.906H198.67V122.906ZM213.318 194L211.418 194.625L211.871 196H213.318V194ZM193.934 135.064L191.95 135.319L191.974 135.508L192.034 135.689L193.934 135.064ZM192.371 122.906V120.906H190.098L190.387 123.161L192.371 122.906ZM202.381 122.906L204.254 122.206L203.769 120.906H202.381V122.906ZM228.943 194V196H231.826L230.817 193.3L228.943 194ZM212.439 167.535H214.439V165.535H212.439V167.535ZM212.439 179.01V181.01H214.439V179.01H212.439ZM174.891 179.01H172.891V181.01H174.891V179.01ZM174.891 167.535V165.535H172.891V167.535H174.891ZM195.354 134.441L176.018 193.377L179.818 194.623L199.154 135.688L195.354 134.441ZM177.918 192H162.342V196H177.918V192ZM164.217 194.697L190.633 123.603L186.883 122.21L160.467 193.303L164.217 194.697ZM188.758 124.906H198.67V120.906H188.758V124.906ZM196.683 122.675L195.267 134.833L199.24 135.296L200.656 123.138L196.683 122.675ZM215.218 193.375L195.833 134.44L192.034 135.689L211.418 194.625L215.218 193.375ZM195.917 134.81L194.355 122.651L190.387 123.161L191.95 135.319L195.917 134.81ZM192.371 124.906H202.381V120.906H192.371V124.906ZM200.507 123.606L227.07 194.7L230.817 193.3L204.254 122.206L200.507 123.606ZM228.943 192H213.318V196H228.943V192ZM210.439 167.535V179.01H214.439V167.535H210.439ZM212.439 177.01H174.891V181.01H212.439V177.01ZM176.891 179.01V167.535H172.891V179.01H176.891ZM174.891 169.535H212.439V165.535H174.891V169.535ZM245.105 168.658H243.105V170.658H245.105V168.658ZM245.105 157.232V155.232H243.105V157.232H245.105ZM270.057 155.865L270.977 157.641L270.99 157.634L271.003 157.627L270.057 155.865ZM250.184 134.381V132.381H248.184V134.381H250.184ZM250.184 194V196H252.184V194H250.184ZM235.535 194H233.535V196H235.535V194ZM235.535 122.906V120.906H233.535V122.906H235.535ZM277.527 125.934L276.621 127.717L276.63 127.721L276.639 127.725L277.527 125.934ZM277.527 165.924L276.699 164.104L276.693 164.106L277.527 165.924ZM263.221 166.658H245.105V170.658H263.221V166.658ZM247.105 168.658V157.232H243.105V168.658H247.105ZM245.105 159.232H263.221V155.232H245.105V159.232ZM263.221 159.232C266.216 159.232 268.842 158.748 270.977 157.641L269.136 154.09C267.756 154.805 265.824 155.232 263.221 155.232V159.232ZM271.003 157.627C273.098 156.502 274.697 154.905 275.71 152.839L272.118 151.079C271.503 152.333 270.531 153.341 269.11 154.103L271.003 157.627ZM275.71 152.839C276.674 150.872 277.135 148.693 277.135 146.344H273.135C273.135 148.161 272.782 149.726 272.118 151.079L275.71 152.839ZM277.135 146.344C277.135 143.964 276.675 141.715 275.74 139.62L272.088 141.251C272.78 142.802 273.135 144.492 273.135 146.344H277.135ZM275.74 139.62C274.759 137.421 273.2 135.657 271.122 134.349L268.991 137.733C270.428 138.639 271.442 139.804 272.088 141.251L275.74 139.62ZM271.122 134.349C268.952 132.982 266.27 132.381 263.221 132.381V136.381C265.77 136.381 267.645 136.886 268.991 137.733L271.122 134.349ZM263.221 132.381H250.184V136.381H263.221V132.381ZM248.184 134.381V194H252.184V134.381H248.184ZM250.184 192H235.535V196H250.184V192ZM237.535 194V122.906H233.535V194H237.535ZM235.535 124.906H263.221V120.906H235.535V124.906ZM263.221 124.906C268.549 124.906 272.992 125.872 276.621 127.717L278.433 124.151C274.12 121.959 269.025 120.906 263.221 120.906V124.906ZM276.639 127.725C280.332 129.557 283.092 132.057 284.993 135.217L288.421 133.154C286.09 129.283 282.73 126.281 278.416 124.142L276.639 127.725ZM284.993 135.217C286.903 138.39 287.881 142.046 287.881 146.246H291.881C291.881 141.396 290.743 137.013 288.421 133.154L284.993 135.217ZM287.881 146.246C287.881 150.519 286.9 154.107 285.016 157.093L288.398 159.228C290.746 155.507 291.881 151.153 291.881 146.246H287.881ZM285.016 157.093C283.13 160.08 280.388 162.424 276.699 164.104L278.356 167.744C282.674 165.778 286.052 162.946 288.398 159.228L285.016 157.093ZM276.693 164.106C273.045 165.781 268.575 166.658 263.221 166.658V170.658C268.999 170.658 274.067 169.713 278.362 167.741L276.693 164.106ZM315.564 122.906H317.564V120.906H315.564V122.906ZM315.564 194V196H317.564V194H315.564ZM300.965 194H298.965V196H300.965V194ZM300.965 122.906V120.906H298.965V122.906H300.965ZM313.564 122.906V194H317.564V122.906H313.564ZM315.564 192H300.965V196H315.564V192ZM302.965 194V122.906H298.965V194H302.965ZM300.965 124.906H315.564V120.906H300.965V124.906Z" fill="#3799FF" mask="url(#path-2-outside-1_2_72)"/>
</svg>
